 <svg  version="1.0" xmlns="http://www.w3.org/2000/svg"  width="300.000000pt" height="300.000000pt" viewBox="0 0 300.000000 300.000000"  preserveAspectRatio="xMidYMid meet">  <g transform="translate(0.000000,300.000000) scale(0.100000,-0.100000)" fill="#ee00ff" stroke="none"> <path d="M1114 2964 l-33 -34 -30 18 c-29 16 -32 16 -67 -3 -40 -21 -76 -70 -71 -95 1 -8 -10 -23 -25 -33 -47 -29 -65 -106 -29 -128 17 -11 14 -16 -35 -66 -30 -29 -54 -62 -54 -74 0 -11 -14 -48 -32 -82 -28 -54 -32 -71 -31 -133 0 -39 8 -99 17 -133 9 -34 15 -65 14 -69 -1 -4 1 -31 6 -61 15 -112 -4 -168 -174 -508 -86 -172 -154 -313 -150 -313 9 0 163 138 172 155 5 8 17 15 27 15 9 0 36 14 59 31 23 17 42 29 42 27 0 -1 -7 -35 -15 -75 -22 -107 -81 -278 -116 -340 -17 -30 -29 -56 -27 -58 3 -3 20 7 39 21 19 14 46 32 60 39 l25 14 -7 -62 c-4 -34 -6 -64 -3 -66 2 -2 4 4 4 14 0 10 3 15 7 12 13 -14 88 127 127 237 4 11 10 16 15 10 19 -19 -28 -239 -85 -400 -31 -88 -71 -206 -90 -264 -37 -110 -56 -240 -36 -240 6 0 36 9 66 21 56 21 129 82 194 164 30 37 32 38 32 15 0 -14 16 -67 35 -118 26 -71 46 -106 82 -146 27 -29 52 -53 57 -53 5 -1 13 -7 17 -15 7 -10 9 -9 9 5 0 14 4 16 19 7 15 -8 22 -7 28 4 13 23 60 9 67 -20 4 -13 13 -24 20 -24 8 0 16 -9 19 -21 4 -14 10 -18 19 -13 24 15 58 15 74 -1 22 -21 64 -20 64 3 0 12 9 18 30 19 30 2 30 2 24 -40 -3 -23 -10 -54 -14 -69 -5 -17 -5 -28 0 -28 22 0 45 169 34 252 -4 26 -12 48 -18 48 -20 0 -233 107 -308 155 -94 59 -193 165 -212 225 -26 82 -29 195 -7 305 11 55 23 122 27 149 l7 49 17 -34 c10 -19 27 -42 38 -52 20 -19 21 -18 28 18 3 20 4 52 1 72 -5 30 -4 34 11 30 200 -66 206 -67 405 -69 163 -3 196 -1 222 14 53 29 134 59 189 69 65 12 97 1 226 -75 135 -78 195 -107 251 -120 93 -21 178 -25 292 -15 100 8 137 16 206 44 99 40 131 60 131 80 0 13 -5 13 -37 -1 -194 -82 -229 -90 -428 -88 -104 1 -130 5 -195 29 -40 15 -108 49 -150 75 -151 95 -176 105 -265 104 -71 0 -90 -4 -170 -39 l-90 -40 -190 2 c-170 2 -199 5 -274 28 -46 13 -89 29 -96 35 -9 8 -14 6 -19 -5 -8 -22 -26 -9 -26 18 0 12 -6 34 -14 49 -24 46 -45 149 -56 273 -11 124 -7 187 15 218 11 16 16 12 45 -40 38 -68 126 -163 152 -163 15 0 18 9 18 53 0 29 7 79 15 110 15 56 83 217 93 217 2 0 32 -26 66 -57 87 -80 162 -126 252 -153 43 -12 87 -31 98 -41 47 -45 266 -101 348 -90 4 1 -8 22 -25 49 -18 26 -39 67 -47 92 -8 25 -17 47 -21 50 -12 9 -41 171 -35 196 4 13 -3 60 -14 103 -19 77 -28 198 -10 141 4 -14 8 -20 9 -15 1 6 16 -20 35 -57 41 -82 112 -183 186 -264 30 -34 75 -94 100 -134 28 -45 64 -88 95 -112 28 -21 56 -44 64 -50 11 -10 16 -9 19 0 2 7 13 12 23 12 11 0 18 4 15 8 -3 5 20 41 50 82 29 40 54 77 54 81 0 5 15 16 33 25 53 27 137 87 137 98 0 5 12 -13 26 -41 32 -61 121 -166 176 -206 41 -31 47 -29 22 8 -9 13 -13 29 -9 34 3 6 1 21 -6 33 -7 12 -12 35 -11 50 0 15 -4 28 -9 28 -13 0 -11 -26 6 -67 19 -44 12 -56 -9 -16 -8 15 -15 24 -16 19 0 -5 10 -25 22 -45 19 -30 19 -34 4 -21 -10 8 -27 35 -38 59 -10 24 -21 41 -24 38 -3 -3 -1 -16 6 -29 11 -22 10 -22 -4 -4 -9 11 -16 29 -16 40 0 16 -2 18 -9 7 -7 -11 -19 1 -50 49 -23 35 -41 67 -41 71 0 14 43 50 50 42 3 -5 15 -35 25 -68 11 -33 21 -52 23 -43 2 8 -5 41 -16 72 -13 40 -16 59 -8 67 6 7 -5 2 -24 -10 -19 -12 -43 -25 -52 -28 -10 -3 -18 -9 -18 -13 0 -4 -12 -16 -27 -25 -21 -14 -16 -6 17 31 25 27 53 60 62 74 l17 25 0 -24 c1 -13 4 -22 7 -19 9 9 -7 78 -17 72 -5 -3 -7 -10 -3 -15 6 -11 -103 -140 -116 -136 -4 1 -24 -16 -44 -38 l-36 -40 16 45 c35 99 44 132 33 128 -6 -2 -21 -35 -33 -73 -33 -101 -105 -235 -128 -235 -5 0 0 12 11 26 11 15 18 31 14 37 -3 5 -1 7 4 4 6 -4 13 2 16 13 9 35 -11 21 -29 -20 -10 -22 -21 -40 -24 -40 -3 0 -12 -17 -20 -37 l-14 -38 -7 30 -7 30 -2 -30 c-1 -16 -2 -33 -1 -37 4 -27 -55 13 -82 55 -15 22 -27 37 -27 31 0 -5 7 -20 16 -32 9 -13 14 -25 13 -27 -7 -6 -111 140 -140 196 -16 30 -29 48 -29 41 0 -7 -4 -10 -10 -7 -16 10 -124 156 -162 220 -43 72 -118 246 -118 274 0 11 -5 23 -12 27 -8 5 -9 -6 -4 -42 15 -99 25 -201 27 -279 1 -59 3 -71 8 -45 6 31 8 27 15 -35 11 -106 33 -215 51 -259 30 -70 6 -50 -30 26 -20 41 -43 113 -52 159 -20 106 -26 122 -31 86 -8 -62 67 -285 112 -330 10 -9 14 -17 10 -17 -4 0 1 -9 10 -19 17 -18 16 -20 -3 -26 -12 -3 -26 -3 -32 1 -6 4 -32 8 -58 9 -47 2 -133 35 -158 61 -8 8 -19 14 -25 14 -22 0 -183 63 -190 74 -12 21 -68 81 -68 74 0 -4 15 -24 33 -45 l32 -37 -35 24 c-19 13 -83 71 -142 129 -60 57 -108 98 -108 90 0 -8 9 -22 19 -31 20 -17 18 -46 -9 -113 -6 -16 -14 -37 -16 -45 -2 -8 -13 -42 -25 -74 -11 -33 -23 -91 -27 -130 -5 -57 -7 -65 -13 -41 -10 45 -10 117 0 111 10 -6 26 102 17 112 -3 3 -6 -6 -6 -20 0 -14 -7 -42 -15 -61 -8 -20 -16 -59 -17 -87 -1 -27 -3 -50 -4 -50 -2 0 -14 25 -28 57 -15 31 -29 54 -32 50 -3 -3 2 -18 11 -34 l17 -28 -26 30 c-14 16 -37 51 -51 77 -25 47 -26 48 -10 107 17 68 19 105 5 96 -6 -3 -8 -16 -5 -28 4 -16 -7 -42 -37 -86 l-43 -65 2 -137 c2 -147 21 -270 55 -348 14 -32 21 -73 23 -136 3 -88 1 -82 -11 23 -3 28 -9 52 -14 52 -5 0 -4 -15 1 -32 5 -18 9 -46 9 -63 l0 -29 -20 39 c-11 22 -20 49 -20 62 0 12 -5 25 -10 28 -6 4 -10 -7 -10 -27 0 -39 -22 -164 -46 -263 -17 -75 -15 -245 5 -296 7 -20 6 -32 -4 -46 -8 -11 -12 -23 -9 -26 26 -26 -137 -208 -223 -249 -29 -14 -49 -20 -46 -15 3 6 7 23 8 38 2 15 17 53 34 85 17 31 29 59 27 62 -3 2 -14 -13 -25 -35 -11 -21 -20 -31 -21 -23 0 8 9 30 20 48 15 24 18 38 11 51 -8 13 -1 42 25 112 19 51 38 96 42 99 4 3 7 11 8 18 4 48 4 48 15 32 8 -11 9 -8 4 13 -4 21 -3 27 6 21 9 -5 10 -2 6 9 -3 9 0 38 8 64 14 50 56 343 54 384 l-1 24 -9 -25 c-5 -16 -6 0 -2 43 4 46 2 67 -6 67 -6 0 -11 7 -11 15 0 8 -4 15 -10 15 -15 0 -32 -39 -27 -63 4 -18 5 -17 6 6 0 16 7 27 15 27 15 0 28 -48 15 -56 -9 -5 -4 -107 5 -123 4 -5 2 -12 -3 -15 -4 -3 -11 12 -15 35 -4 28 -10 38 -19 33 -8 -6 -8 -3 1 9 8 9 11 25 7 37 -7 23 -20 26 -29 8 -13 -28 4 91 23 162 22 81 28 155 11 145 -5 -3 -10 -21 -10 -40 0 -19 -5 -37 -10 -40 -6 -4 -8 -14 -5 -24 3 -10 -4 -44 -15 -76 -27 -77 -25 -121 6 -191 l25 -58 -37 -90 c-21 -50 -46 -104 -56 -121 l-19 -30 3 53 c2 28 2 52 0 52 -2 0 -23 -16 -46 -35 -24 -19 -46 -35 -50 -35 -3 0 7 26 23 58 45 90 88 222 101 310 9 56 20 91 36 113 40 55 27 53 -27 -3 -28 -29 -45 -44 -38 -34 13 18 13 19 -10 5 -13 -8 -31 -19 -41 -24 -10 -6 -26 -17 -36 -25 -16 -13 -17 -13 -9 0 4 8 -4 4 -18 -9 -15 -13 -29 -32 -33 -43 -3 -10 -10 -18 -16 -18 -6 0 -3 11 6 25 22 34 20 42 -5 19 l-21 -19 18 37 c9 20 20 35 24 33 4 -2 13 8 21 23 7 15 21 39 31 54 10 14 18 32 18 40 1 7 14 29 30 48 43 49 36 63 -6 15 -35 -39 -35 -38 17 62 30 56 58 99 63 96 5 -4 6 -1 2 5 -3 6 -1 23 5 39 6 15 17 64 25 108 8 44 19 94 24 110 10 30 10 30 5 -5 -3 -19 -8 -53 -11 -75 -4 -36 -3 -37 7 -15 6 14 12 57 13 95 3 68 40 230 57 249 12 13 11 -11 -1 -53 -13 -45 -7 -50 13 -10 9 20 12 40 8 53 -6 15 0 34 21 68 34 54 58 76 29 26 -24 -41 -35 -94 -23 -102 6 -4 8 3 5 16 -3 16 -2 19 5 10 6 -10 11 -1 15 29 3 24 12 48 19 54 28 21 41 90 34 179 -7 81 -6 85 11 78 39 -15 60 -38 71 -77 l12 -40 -4 36 -4 36 42 -14 c38 -13 43 -17 39 -41 -4 -21 -2 -24 6 -12 6 8 11 23 11 33 0 11 13 24 35 33 42 17 68 64 63 111 -3 23 3 50 18 79 19 37 21 50 12 75 -15 44 -49 63 -102 56 -36 -5 -44 -3 -42 8 1 9 8 21 16 28 12 10 12 9 1 -5 -17 -23 -5 -23 24 0 l23 18 -36 1 c-29 1 -43 -6 -68 -33z m-54 -49 c0 -8 -13 -21 -30 -30 -22 -11 -30 -23 -31 -43 l-1 -27 -10 28 c-5 15 -14 27 -19 27 -6 0 -8 -4 -5 -8 3 -5 7 -21 10 -37 6 -32 -5 -25 -28 20 -15 28 -14 31 11 57 20 21 36 28 65 28 27 0 38 -4 38 -15z m188 -5 c30 -18 43 -40 24 -40 -5 0 -16 -17 -25 -37 l-17 -38 20 24 c24 28 26 20 4 -14 -10 -16 -21 -22 -32 -18 -13 5 -11 0 6 -19 45 -49 18 -103 -66 -132 -34 -12 -44 -13 -55 -2 -7 7 -28 21 -47 30 -39 18 -100 71 -100 85 0 13 49 43 60 36 6 -3 10 -2 10 4 0 5 -5 13 -10 16 -7 4 -7 13 0 26 6 10 7 19 3 19 -21 0 156 78 182 79 6 1 25 -8 43 -19z m-298 -100 c0 -5 -8 -14 -17 -20 -15 -9 -14 -10 7 -4 25 7 25 7 6 -15 -11 -11 -25 -21 -33 -21 -7 0 -13 -4 -13 -10 0 -12 10 -13 30 0 9 6 17 5 22 -3 13 -20 9 -27 -15 -27 -13 0 -29 -6 -36 -12 -10 -11 -15 -9 -27 6 -28 39 -15 81 33 102 35 16 43 16 43 4z m-43 -148 c-29 -32 -18 -37 13 -7 16 16 33 25 37 21 13 -13 8 -169 -6 -194 -7 -13 -36 -51 -65 -85 -58 -69 -90 -144 -106 -252 -6 -38 -16 -74 -22 -80 -7 -7 -9 -2 -6 18 3 16 -1 61 -9 100 -8 40 -14 106 -15 148 -1 71 1 80 42 157 39 72 131 192 147 192 4 0 -1 -8 -10 -18z m76 -2082 c-4 -12 -3 -12 5 -1 7 10 16 5 38 -24 49 -63 287 -208 413 -252 28 -10 33 -16 27 -35 -3 -13 -6 -38 -6 -55 0 -28 -5 -35 -36 -48 -69 -28 -71 -26 -67 73 3 63 1 83 -6 72 -6 -8 -11 -35 -11 -60 0 -74 -7 -87 -40 -82 -18 3 -39 17 -55 38 -14 19 -34 34 -45 34 -21 0 -45 56 -55 129 -6 46 -23 86 -32 77 -3 -3 -1 -11 4 -18 15 -19 23 -72 13 -87 -5 -9 1 -30 16 -56 21 -38 22 -44 7 -49 -21 -8 -21 -8 -49 66 -12 35 -23 53 -23 41 -1 -12 8 -42 19 -67 16 -39 17 -46 4 -46 -8 0 -19 10 -24 22 -5 13 -9 17 -9 9 -2 -45 -101 118 -101 168 -1 14 -7 55 -15 91 l-14 65 4 -55 4 -55 -14 44 c-12 35 -12 53 -3 88 l11 45 22 -28 c13 -16 21 -35 18 -44z m-331 -147 c-9 -18 -17 -31 -20 -29 -2 2 1 13 7 24 6 12 11 33 12 49 0 24 2 25 8 8 5 -12 2 -32 -7 -52z"/> <path d="M1070 2840 c-8 -5 -10 -10 -5 -10 6 0 0 -6 -12 -13 l-22 -12 21 -45 c11 -25 22 -40 25 -33 2 6 -4 27 -13 45 -14 28 -15 31 -1 20 8 -7 27 -15 41 -18 36 -6 35 23 -1 32 l-26 7 34 18 34 18 -30 0 c-16 1 -37 -4 -45 -9z"/> <path d="M1070 486 c0 -25 44 -148 48 -133 4 19 -25 116 -39 132 -5 5 -9 5 -9 1z"/> <path d="M990 448 c0 -18 53 -169 57 -164 5 5 -47 176 -53 176 -2 0 -4 -6 -4 -12z"/> <path d="M1041 450 c0 -8 8 -31 19 -50 11 -19 19 -28 19 -20 0 8 -8 31 -19 50 -11 19 -19 28 -19 20z"/> <path d="M1219 360 c-5 -61 -1 -80 25 -111 l26 -31 -2 69 -1 68 -6 -55 c-7 -65 -19 -49 -31 40 -6 48 -8 50 -11 20z"/> <path d="M1289 323 c-1 -10 -2 -36 -3 -58 -1 -22 -5 -46 -10 -53 -5 -8 -4 -18 2 -24 8 -8 12 -4 16 13 11 56 14 129 5 134 -5 4 -10 -2 -10 -12z"/> <path d="M1411 250 c-13 -62 -14 -83 -2 -76 15 9 33 108 22 119 -5 5 -13 -11 -20 -43z"/> <path d="M1471 2976 c-7 -13 -11 -32 -9 -42 3 -15 7 -12 21 15 9 19 17 38 17 43 0 16 -17 8 -29 -16z"/> <path d="M1732 2961 c-7 -21 -12 -47 -12 -58 0 -20 29 -53 46 -53 5 0 21 34 36 75 18 53 22 75 14 75 -13 0 -36 -41 -36 -65 0 -25 -20 -66 -29 -61 -8 5 -1 56 15 109 3 10 0 17 -9 17 -7 0 -19 -17 -25 -39z"/> <path d="M1837 2965 c-9 -20 -17 -47 -17 -60 0 -14 -4 -25 -10 -25 -5 0 -10 -7 -10 -15 0 -21 16 -19 24 3 3 9 10 28 15 42 21 57 29 90 22 90 -4 0 -15 -16 -24 -35z"/> <path d="M2697 2963 c-4 -3 -6 -20 -6 -37 1 -21 3 -25 6 -11 3 11 9 24 14 30 17 18 4 36 -14 18z"/> <path d="M2800 2946 c0 -14 -4 -28 -10 -31 -5 -3 -9 -16 -9 -28 1 -20 2 -21 6 -2 3 11 8 25 13 30 14 20 19 44 10 50 -6 4 -10 -5 -10 -19z"/> <path d="M2842 2923 c-17 -57 -14 -76 4 -25 8 24 14 48 12 54 -2 6 -9 -7 -16 -29z"/> <path d="M2827 2620 c-3 -8 -8 -35 -11 -60 -3 -25 -8 -63 -11 -85 -9 -59 10 -22 24 51 13 59 11 125 -2 94z"/> <path d="M2871 2595 c-2 -16 -3 -33 -2 -37 0 -4 -6 -33 -14 -65 -16 -60 -18 -80 -10 -71 13 13 36 127 32 163 -3 34 -4 35 -6 10z"/> <path d="M465 2592 c-38 -24 -92 -84 -112 -128 -16 -32 -17 -33 -46 -18 -39 21 -73 11 -97 -29 -36 -58 -21 -130 39 -199 36 -41 240 -146 336 -173 33 -10 71 -22 85 -27 16 -6 5 8 -33 42 -68 62 -93 105 -107 191 -14 89 -13 147 6 235 14 69 14 78 -1 100 -19 29 -30 30 -70 6z m58 -25 c3 -8 -1 -40 -9 -73 -25 -108 -14 -273 23 -349 9 -16 27 -43 42 -59 l26 -28 -25 6 c-14 4 -86 37 -160 74 -110 55 -140 75 -167 110 -41 54 -51 103 -29 148 16 35 34 41 83 28 18 -5 20 -10 12 -37 -12 -42 -11 -67 1 -67 6 0 10 9 10 21 0 19 10 47 44 119 6 13 32 46 57 72 45 47 82 61 92 35z"/> <path d="M1199 2594 c-7 -9 -13 -24 -14 -35 -1 -14 1 -16 12 -7 7 6 12 18 11 27 -2 9 3 15 10 14 6 -2 12 2 12 7 0 15 -16 12 -31 -6z"/> <path d="M1112 2560 c1 -19 -3 -46 -7 -60 l-7 -25 14 25 c16 29 34 104 19 81 -7 -11 -9 -11 -14 0 -3 8 -5 -2 -5 -21z"/> <path d="M2616 2538 c-7 -18 -36 -101 -62 -184 -39 -120 -46 -150 -33 -147 9 3 29 39 47 86 39 104 82 236 82 253 0 28 -21 23 -34 -8z"/> <path d="M2075 2500 c3 -30 10 -59 16 -64 5 -6 9 -18 9 -28 0 -10 4 -18 9 -18 5 0 15 -15 22 -32 l12 -33 7 50 c4 28 3 54 -1 60 -5 5 -9 0 -9 -13 0 -43 -18 -21 -44 56 l-27 77 6 -55z"/> <path d="M2553 2497 c-6 -28 -25 -90 -42 -137 -30 -84 -43 -157 -20 -117 33 56 96 284 82 298 -5 5 -13 -13 -20 -44z"/> <path d="M2020 2528 c0 -27 50 -158 61 -158 9 0 -1 49 -12 56 -5 3 -9 16 -9 29 0 13 -4 27 -10 30 -5 3 -10 17 -10 31 0 13 -4 24 -10 24 -5 0 -10 -5 -10 -12z"/> <path d="M2682 2528 c-15 -20 -82 -203 -82 -227 0 -11 -3 -21 -7 -21 -8 0 -33 -47 -33 -62 0 -17 28 -7 50 19 29 33 90 164 90 193 0 33 -16 15 -31 -35 -7 -25 -17 -45 -21 -45 -11 0 -10 27 1 48 10 18 50 142 46 142 -2 0 -7 -6 -13 -12z"/> <path d="M2389 2465 c-3 -6 -11 -30 -18 -55 -7 -25 -17 -59 -22 -76 -11 -37 -12 -74 -1 -74 11 0 32 75 32 115 0 20 5 45 11 56 6 11 9 25 6 32 -2 6 -6 7 -8 2z"/> <path d="M2720 2409 c0 -11 -19 -57 -41 -102 -23 -45 -45 -98 -50 -117 -4 -19 -11 -46 -15 -59 -5 -18 -4 -22 5 -17 14 9 91 167 91 187 0 8 7 32 15 54 17 48 19 75 5 75 -5 0 -10 -9 -10 -21z"/> <path d="M2408 2394 c-5 -4 -8 -35 -7 -68 1 -61 1 -61 10 -21 11 44 8 101 -3 89z"/> <path d="M1950 2371 c0 -5 9 -28 21 -52 13 -29 18 -35 15 -17 -12 54 -36 101 -36 69z"/> <path d="M1758 2358 c-11 -28 -9 -158 1 -158 7 0 11 31 11 85 0 82 -3 99 -12 73z"/> <path d="M1797 2318 c-3 -29 -5 -75 -3 -103 2 -27 4 -72 6 -100 l3 -50 12 60 c13 63 10 224 -4 238 -5 5 -11 -15 -14 -45z"/> <path d="M2290 2301 c0 -16 5 -33 10 -36 6 -4 10 6 10 24 0 16 -4 33 -10 36 -6 4 -10 -6 -10 -24z"/> <path d="M2700 2210 c-17 -34 -35 -74 -41 -88 l-9 -27 25 30 c13 16 30 43 36 60 6 16 16 40 22 52 6 13 8 26 4 29 -3 3 -20 -22 -37 -56z"/> <path d="M2988 2163 c7 -65 12 -67 12 -5 0 29 -4 52 -9 52 -5 0 -6 -21 -3 -47z"/> <path d="M1849 2170 c-1 -19 -3 -45 -4 -57 -1 -12 1 -27 5 -34 5 -6 10 14 11 46 2 31 1 62 -3 68 -4 7 -8 -4 -9 -23z"/> <path d="M2130 2148 c16 -63 22 -78 30 -73 9 6 -20 105 -31 105 -4 0 -3 -15 1 -32z"/> <path d="M858 2138 c-8 -13 -22 -59 -31 -103 -8 -44 -17 -87 -20 -95 -2 -8 -2 -12 0 -7 13 22 19 1 11 -33 -6 -23 -13 -38 -16 -35 -8 7 -52 -85 -52 -108 0 -27 18 -11 25 23 4 17 11 30 16 30 12 0 11 -27 -1 -51 -6 -10 -7 -19 -2 -19 20 0 32 29 31 76 -1 27 10 94 24 149 14 55 23 103 21 107 -2 4 6 14 18 22 20 14 20 16 4 16 -14 0 -17 5 -12 25 8 31 3 32 -16 3z"/> <path d="M1610 2095 c0 -20 90 -189 97 -182 2 2 -19 49 -46 103 -28 54 -50 90 -51 79z"/> <path d="M2206 2073 c3 -16 14 -46 24 -68 10 -22 20 -49 24 -59 4 -10 8 -17 11 -14 7 6 -49 168 -58 168 -4 0 -5 -12 -1 -27z"/> <path d="M899 2078 c-1 -7 -1 -21 0 -30 1 -9 -3 -36 -10 -60 -6 -24 -13 -52 -15 -62 -2 -11 -9 -23 -16 -27 -7 -4 -9 -11 -5 -15 11 -12 36 16 70 81 31 58 32 64 15 68 -10 3 -18 14 -18 25 0 23 -19 41 -21 20z"/> <path d="M1737 2073 c8 -24 54 -103 59 -103 2 0 -9 27 -26 60 -29 57 -46 80 -33 43z"/> <path d="M2301 2077 c-1 -10 12 -60 28 -110 48 -151 60 -197 50 -197 -5 0 1 -15 13 -33 12 -19 27 -34 33 -34 14 0 8 34 -8 44 -7 4 -8 -1 -3 -13 5 -15 4 -16 -5 -7 -6 6 -13 26 -15 45 -2 18 -6 39 -9 47 -3 7 0 20 6 27 9 11 8 18 -4 32 -19 22 -36 84 -39 142 -1 42 -2 42 -6 10 l-4 -35 -18 50 c-10 28 -19 42 -19 32z"/> <path d="M2165 2060 c-3 -5 -1 -10 4 -10 6 0 10 -3 9 -7 -4 -12 21 -77 27 -71 5 5 -24 98 -30 98 -2 0 -7 -4 -10 -10z"/> <path d="M2910 2054 c0 -8 4 -13 10 -9 5 3 11 -21 13 -57 l3 -63 2 73 c2 58 -1 72 -13 72 -8 0 -15 -7 -15 -16z"/> <path d="M2584 2038 c-4 -13 -8 -47 -9 -77 -1 -29 -8 -57 -15 -61 -6 -4 -10 -16 -8 -26 4 -16 7 -14 17 11 7 17 15 44 16 60 2 17 9 46 14 65 13 43 14 50 2 50 -5 0 -13 -10 -17 -22z"/> <path d="M2440 2038 c0 -9 -4 -18 -9 -20 -6 -2 -6 -21 -1 -48 5 -25 10 -72 10 -105 1 -33 5 -69 10 -80 6 -12 7 36 4 120 -3 77 -8 142 -10 144 -2 2 -4 -3 -4 -11z"/> <path d="M1103 2025 c-6 -7 -10 -14 -9 -16 2 -2 0 -31 -5 -64 -5 -36 -4 -64 2 -69 5 -6 9 1 9 20 0 44 20 108 31 97 5 -5 5 -23 -1 -43 -6 -19 -10 -48 -10 -65 0 -55 27 -5 32 59 4 50 2 59 -13 63 -10 3 -19 11 -21 18 -2 11 -5 11 -15 0z"/> <path d="M1177 2033 c-8 -18 -1 -116 9 -120 8 -3 11 17 10 62 -1 58 -8 79 -19 58z"/> <path d="M1234 2032 c-6 -4 -13 -21 -16 -39 -2 -18 -1 -30 4 -27 4 3 9 -1 9 -8 1 -7 5 7 9 32 8 51 8 51 -6 42z"/> <path d="M1448 2014 c35 -50 132 -150 132 -137 0 7 -6 16 -13 20 -7 4 -37 37 -66 73 -55 66 -92 97 -53 44z"/> <path d="M2881 2030 c0 -17 38 -109 38 -96 1 5 -4 27 -11 50 -12 43 -28 70 -27 46z"/> <path d="M2281 2024 c-1 -17 40 -147 44 -142 3 2 -6 38 -19 79 -13 40 -24 69 -25 63z"/> <path d="M2502 1975 c-1 -27 -4 -75 -7 -105 l-4 -55 10 49 c5 27 8 74 6 105 l-3 56 -2 -50z"/> <path d="M2982 1985 c-2 -30 -5 -36 -12 -25 -7 11 -10 6 -10 -20 0 -34 0 -34 16 -12 9 14 14 36 11 60 l-4 37 -1 -40z"/> <path d="M960 2002 c0 -6 -13 -40 -30 -74 l-29 -63 33 38 c35 39 51 85 35 102 -6 5 -9 5 -9 -3z"/> <path d="M1581 1963 c7 -20 113 -152 128 -158 12 -5 12 -3 -1 12 -8 10 -37 45 -63 78 -56 71 -69 85 -64 68z"/> <path d="M1768 1964 c-8 -8 32 -75 49 -81 7 -3 13 -11 13 -17 0 -7 12 -23 27 -37 l26 -24 -17 30 c-33 56 -93 135 -98 129z"/> <path d="M1835 1950 c4 -14 13 -35 21 -47 8 -12 14 -28 14 -35 1 -13 50 -79 50 -66 0 8 -79 160 -87 168 -3 3 -2 -6 2 -20z"/> <path d="M1740 1876 c0 -12 61 -90 81 -104 16 -11 18 -17 9 -22 -9 -5 2 -15 31 -29 41 -20 38 -15 -8 17 -16 11 -16 12 7 6 22 -6 21 -4 -10 22 -43 36 -48 41 -83 82 -15 19 -27 31 -27 28z"/> <path d="M2978 1843 c-2 -15 2 -46 9 -68 12 -39 12 -38 6 25 -7 75 -9 82 -15 43z"/> <path d="M856 1633 c-4 -49 -9 -101 -11 -118 -4 -23 -3 -26 4 -10 9 22 26 215 18 215 -2 0 -8 -39 -11 -87z"/> <path d="M685 1608 c-57 -77 -62 -88 -20 -43 32 35 72 95 62 95 -1 0 -20 -24 -42 -52z"/> <path d="M704 1578 c-26 -40 -55 -79 -63 -85 -8 -7 -10 -13 -4 -13 6 0 23 14 37 31 14 17 26 25 26 18 0 -6 9 0 20 14 11 14 20 29 20 34 0 4 -9 -3 -20 -17 -11 -14 -20 -20 -20 -14 0 6 8 22 19 35 20 27 44 69 38 69 -2 0 -26 -33 -53 -72z"/> <path d="M941 1303 c-7 -32 -14 -67 -16 -77 -2 -10 0 -15 4 -10 9 10 33 136 27 142 -3 2 -9 -23 -15 -55z"/> <path d="M755 1269 c-16 -26 -23 -79 -10 -79 7 0 15 18 18 42 6 45 4 57 -8 37z"/> <path d="M2407 973 c6 -59 10 -73 21 -73 9 0 9 8 -3 83 -9 54 -23 46 -18 -10z"/> <path d="M866 982 c-4 -7 -6 -16 -3 -19 3 -2 -1 -23 -9 -45 -17 -48 -18 -61 -4 -53 6 3 10 16 10 29 0 12 5 27 11 33 6 6 9 23 7 39 -2 20 -6 25 -12 16z"/> <path d="M2451 953 c-1 -24 4 -43 9 -43 12 0 12 24 0 60 -7 21 -8 19 -9 -17z"/> <path d="M1148 918 c-5 -29 5 -87 13 -73 3 6 7 29 8 53 3 44 -14 59 -21 20z"/> <path d="M1190 870 c0 -33 4 -60 10 -60 6 0 10 27 10 60 0 33 -4 60 -10 60 -6 0 -10 -27 -10 -60z"/> <path d="M1249 895 c-3 -2 -3 -20 -1 -40 4 -37 22 -39 22 -2 0 24 -13 50 -21 42z"/> <path d="M893 780 c0 -47 2 -66 4 -42 2 23 2 61 0 85 -2 23 -4 4 -4 -43z"/> <path d="M777 726 c-9 -21 -15 -42 -12 -47 4 -5 1 -9 -6 -9 -7 0 -10 -3 -6 -6 3 -3 2 -16 -3 -28 -6 -17 -5 -23 5 -23 8 0 12 4 9 9 -3 5 4 32 16 59 25 60 23 100 -3 45z"/> <path d="M2080 651 c-14 -10 -50 -29 -80 -41 -66 -28 -87 -44 -45 -35 43 10 159 68 163 83 5 17 -9 15 -38 -7z"/> <path d="M1600 634 c0 -16 76 -62 124 -75 26 -7 28 -6 12 4 -10 7 -41 27 -68 45 -49 31 -68 39 -68 26z"/> <path d="M818 539 c-11 -6 -15 -16 -11 -26 4 -11 3 -14 -5 -9 -7 4 -12 2 -12 -4 0 -6 -19 -31 -42 -57 -24 -25 -34 -41 -23 -35 29 15 80 72 98 110 8 17 15 32 14 32 -1 0 -10 -5 -19 -11z"/> <path d="M751 510 c-1 -9 -13 -33 -27 -55 l-25 -40 40 45 c23 25 41 50 41 55 0 6 -4 4 -9 -4 -7 -11 -9 -11 -14 0 -4 11 -6 11 -6 -1z"/> <path d="M2936 474 c-29 -25 -66 -42 -140 -65 -56 -17 -157 -48 -224 -70 -68 -22 -147 -46 -175 -54 -50 -13 -50 -14 -16 -14 32 -1 94 14 141 34 14 5 12 -3 -8 -54 -28 -69 -34 -178 -13 -224 13 -29 36 -38 24 -9 -18 40 -14 147 6 212 12 36 26 70 33 77 9 9 98 39 240 80 15 4 18 1 13 -11 -4 -10 -3 -15 3 -11 6 3 10 12 10 19 0 6 17 18 38 25 20 8 56 29 78 47 23 18 44 30 48 27 3 -4 6 1 6 10 0 26 -21 20 -64 -19z"/> <path d="M2681 317 c-17 -42 -13 -67 5 -28 8 19 13 39 10 45 -2 6 -9 -2 -15 -17z"/> <path d="M2601 297 c-6 -16 -11 -33 -11 -39 0 -6 -7 -5 -17 3 -16 12 -17 12 -7 -1 13 -17 7 -89 -7 -91 -5 -1 -13 -2 -18 -3 -17 -2 -23 -14 -14 -31 8 -14 12 -14 36 5 21 17 27 30 27 61 0 22 7 54 16 70 8 17 13 36 11 42 -3 7 -10 -1 -16 -16z"/> <path d="M2861 255 c-7 -19 -10 -39 -7 -44 3 -5 -6 -17 -20 -26 -15 -9 -23 -12 -19 -5 12 19 24 81 15 75 -4 -3 -11 -20 -14 -40 -7 -38 -29 -65 -52 -65 -11 0 -13 6 -9 20 8 25 -3 26 -21 3 -12 -17 -13 -17 -20 1 -7 17 -8 17 -21 -5 -13 -23 -13 -22 -8 16 l5 40 -21 -32 c-24 -37 -34 -42 -26 -13 8 30 -6 24 -25 -10 -16 -29 -16 -30 2 -30 14 0 20 -7 21 -22 l0 -23 16 22 c18 27 33 30 33 6 0 -15 1 -15 18 0 23 21 32 21 47 0 11 -15 14 -15 40 5 15 12 33 22 39 22 13 0 46 35 46 49 0 12 26 21 60 21 18 0 35 8 44 22 25 36 19 41 -20 17 l-36 -22 7 23 c5 14 3 20 -3 16 -6 -3 -12 -3 -15 1 -2 5 -3 3 -1 -2 1 -6 -4 -19 -12 -30 -8 -10 -14 -13 -14 -6 0 7 -5 9 -10 6 -7 -4 -9 2 -4 19 9 38 0 32 -15 -9z"/> <path d="M2195 252 c-32 -13 -78 -16 -222 -16 -126 -1 -176 -4 -165 -11 29 -17 350 -12 396 6 22 9 42 21 44 27 5 15 -4 14 -53 -6z"/> </g> </svg> 